<svg width="39" height="35" viewBox="0 0 39 35" fill="none" xmlns="http://www.w3.org/2000/svg">
<path d="M19.2865 32.0208C19.4288 32.0208 19.5925 31.9852 19.7776 31.914C19.9627 31.8429 20.1121 31.7503 20.226 31.6364L34.6187 17.201C34.9889 16.8309 35.2665 16.4109 35.4516 15.9411C35.6366 15.4713 35.7292 14.9944 35.7292 14.5104C35.7292 14.0264 35.6366 13.5423 35.4516 13.0583C35.2665 12.5743 34.9889 12.1472 34.6187 11.7771L26.9312 4.08956C26.5611 3.71942 26.134 3.44182 25.65 3.25675C25.166 3.07168 24.6819 2.97914 24.1979 2.97914C23.7139 2.97914 23.237 3.07168 22.7672 3.25675C22.2974 3.44182 21.8774 3.71942 21.5073 4.08956L20.7385 4.85831L24.1979 8.36039C24.568 8.759 24.8955 9.22168 25.1802 9.74841C25.4649 10.2751 25.6073 10.8517 25.6073 11.4781C25.6073 12.56 25.1873 13.5139 24.3474 14.3396C23.5075 15.1653 22.5465 15.5781 21.4646 15.5781C20.7528 15.5781 20.162 15.4713 19.6922 15.2578C19.2224 15.0442 18.7882 14.7382 18.3896 14.3396L15.2719 11.2218L7.54166 18.9521C7.3993 19.0944 7.29965 19.2439 7.2427 19.4005C7.18576 19.5571 7.15729 19.7208 7.15729 19.8916C7.15729 20.2618 7.27829 20.5679 7.52031 20.8099C7.76232 21.0519 8.0684 21.1729 8.43854 21.1729C8.60937 21.1729 8.77308 21.1302 8.92968 21.0448C9.08628 20.9593 9.22152 20.8597 9.33541 20.7458L15.2292 14.8521L17.0229 16.6458L11.1719 22.4968C11.0295 22.6392 10.9299 22.7958 10.8729 22.9666C10.816 23.1375 10.7875 23.3083 10.7875 23.4791C10.7875 23.8208 10.9156 24.1198 11.1719 24.376C11.4281 24.6323 11.7271 24.7604 12.0687 24.7604C12.2396 24.7604 12.4033 24.7248 12.5599 24.6536C12.7165 24.5824 12.8517 24.4899 12.9656 24.376L18.8594 18.4823L20.6531 20.276L14.8021 26.1271C14.6882 26.2409 14.5957 26.3904 14.5245 26.5755C14.4533 26.7606 14.4177 26.9385 14.4177 27.1094C14.4177 27.451 14.5458 27.75 14.8021 28.0062C15.0583 28.2625 15.3573 28.3906 15.699 28.3906C15.8698 28.3906 16.0264 28.3621 16.1687 28.3052C16.3111 28.2482 16.4535 28.1486 16.5958 28.0062L22.4896 22.1125L24.2833 23.9062L18.3896 29.8C18.2472 29.9423 18.1476 30.0989 18.0906 30.2698C18.0337 30.4406 18.0052 30.5972 18.0052 30.7396C18.0052 31.1382 18.1191 31.4514 18.3469 31.6791C18.5746 31.9069 18.8878 32.0208 19.2865 32.0208ZM19.2865 34.5833C18.3469 34.5833 17.5069 34.2345 16.7667 33.537C16.0264 32.8394 15.5851 31.9781 15.4427 30.9531C14.4746 30.8107 13.6632 30.4121 13.0083 29.7573C12.3535 29.1024 11.9549 28.2909 11.8125 27.3229C10.8444 27.1805 10.0401 26.7748 9.39947 26.1057C8.75885 25.4366 8.36736 24.6323 8.22499 23.6927C7.17152 23.5503 6.30312 23.1232 5.61979 22.4114C4.93645 21.6996 4.59479 20.8455 4.59479 19.8489C4.59479 19.3649 4.68732 18.8809 4.87239 18.3969C5.05746 17.9128 5.33506 17.4857 5.7052 17.1156L15.2719 7.54893L19.9698 12.2469C20.1976 12.4746 20.4467 12.6526 20.7172 12.7807C20.9877 12.9088 21.251 12.9729 21.5073 12.9729C21.8774 12.9729 22.2262 12.8092 22.5536 12.4817C22.8811 12.1543 23.0448 11.8055 23.0448 11.4354C23.0448 11.2646 22.995 11.0724 22.8953 10.8588C22.7957 10.6453 22.6319 10.4246 22.4042 10.1968L16.2969 4.08956C15.9267 3.71942 15.4996 3.44182 15.0156 3.25675C14.5316 3.07168 14.0476 2.97914 13.5635 2.97914C13.0795 2.97914 12.6026 3.07168 12.1328 3.25675C11.663 3.44182 11.243 3.71942 10.8729 4.08956L4.38124 10.5812C3.98263 10.9798 3.70503 11.3998 3.54843 11.8411C3.39183 12.2824 3.2993 12.7736 3.27083 13.3146C3.24236 13.884 3.34913 14.4321 3.59114 14.9588C3.83315 15.4856 4.12499 15.9625 4.46666 16.3896L2.6302 18.226C2.06076 17.5996 1.59809 16.8451 1.24218 15.9625C0.88628 15.0798 0.708328 14.183 0.708328 13.2718C0.708328 12.4177 0.872044 11.5991 1.19947 10.8161C1.5269 10.0331 1.98958 9.34268 2.58749 8.74477L9.03645 2.29581C9.66284 1.66942 10.3746 1.20675 11.1719 0.907788C11.9691 0.608829 12.7806 0.459351 13.6062 0.459351C14.4319 0.459351 15.2363 0.608829 16.0193 0.907788C16.8022 1.20675 17.5069 1.66942 18.1333 2.29581L18.9021 3.06456L19.6708 2.29581C20.2972 1.66942 21.009 1.20675 21.8062 0.907788C22.6035 0.608829 23.4149 0.459351 24.2406 0.459351C25.0663 0.459351 25.8707 0.608829 26.6536 0.907788C27.4366 1.20675 28.1413 1.66942 28.7677 2.29581L36.4125 9.9406C37.0389 10.567 37.5087 11.2788 37.8219 12.076C38.1351 12.8732 38.2917 13.6847 38.2917 14.5104C38.2917 15.3361 38.1351 16.1404 37.8219 16.9234C37.5087 17.7064 37.0389 18.4111 36.4125 19.0375L22.0198 33.4302C21.6496 33.8003 21.2297 34.085 20.7599 34.2844C20.2901 34.4837 19.799 34.5833 19.2865 34.5833Z" fill="black"/>
</svg>
